STARTFONT 2.1
COMMENT Unicode fullwidth 16x16 glyphs based on Terminus 24-pixel bold.
FONT -xos4-Fullwidth16-Medium-R-Normal--16-240-75-75-C-120-ISO10646-1
SIZE 16 75 75
FONTBOUNDINGBOX 16 16 0 -2
STARTPROPERTIES 5
COPYRIGHT "Copyright (C) 2012 Dimitar Toshkov Zhekov"
NOTICE "Licensed under the SIL Open Font License, Version 1.1"
FONT_ASCENT 14
FONT_DESCENT 2
DEFAULT_CHAR 65533
ENDPROPERTIES
CHARS 879
STARTCHAR space
STARTSWITH 65280
SWIDTH 1000 0
DWIDTH 16 0
BBX 16 16 0 -2
BITMAP
0000
0000
0000
0000
0000
0000
0000
0000
0000
0000
0000
0000
0000
0000
0000
0000
ENDCHAR
STARTCHAR exclam
STARTSWITH 65281
SWIDTH 1000 0
DWIDTH 16 0
BBX 16 16 0 -2
BITMAP
0000
0180
0180
0180
0180
0180
0180
0180
0180
0180
0180
0000
0000
0180
0180
0180
ENDCHAR
STARTCHAR quotedbl
STARTSWITH 65282
SWIDTH 1000 0
DWIDTH 16 0
BBX 16 16 0 -2
BITMAP
0000
0000
0000
0000
0660
0660
0660
0660
0660
0000
0000
0000
0000
0000
0000
0000
ENDCHAR
STARTCHAR numbersign
STARTSWITH 65283
SWIDTH 1000 0
DWIDTH 16 0
BBX 16 16 0 -2
BITMAP
0000
0660
0660
0660
0660
1FF8
0660
0660
0660
0660
0660
1FF8
0660
0660
0660
0660
ENDCHAR
STARTCHAR dollar
STARTSWITH 65284
SWIDTH 1000 0
DWIDTH 16 0
BBX 16 16 0 -2
BITMAP
0000
0180
07E0
0DB0
1998
1980
1980
0D80
07E0
01B0
0198
0198
1998
0DB0
07E0
0180
ENDCHAR
STARTCHAR percent
STARTSWITH 65285
SWIDTH 1000 0
DWIDTH 16 0
BBX 16 16 0 -2
BITMAP
0000
0E30
1B30
1B60
0E60
00C0
00C0
0180
0180
0300
0300
0670
06D8
0CD8
0C70
0000
ENDCHAR
STARTCHAR ampersand
STARTSWITH 65286
SWIDTH 1000 0
DWIDTH 16 0
BBX 16 16 0 -2
BITMAP
0000
0380
06C0
0C60
0C60
0C60
06C0
0380
0798
0CD8
1870
1830
1830
1870
0CD8
0798
ENDCHAR
STARTCHAR quotesingle
STARTSWITH 65287
SWIDTH 1000 0
DWIDTH 16 0
BBX 16 16 0 -2
BITMAP
0000
0000
0000
0000
0180
0180
0180
0180
0180
0000
0000
0000
0000
0000
0000
0000
ENDCHAR
STARTCHAR parenleft
STARTSWITH 65288
SWIDTH 1000 0
DWIDTH 16 0
BBX 16 16 0 -2
BITMAP
0000
00C0
0180
0300
0300
0600
0600
0600
0600
0600
0600
0600
0300
0300
0180
00C0
ENDCHAR
STARTCHAR parenright
STARTSWITH 65289
SWIDTH 1000 0
DWIDTH 16 0
BBX 16 16 0 -2
BITMAP
0000
0600
0300
0180
0180
00C0
00C0
00C0
00C0
00C0
00C0
00C0
0180
0180
0300
0600
ENDCHAR
STARTCHAR asterisk
STARTSWITH 65290
SWIDTH 1000 0
DWIDTH 16 0
BBX 16 16 0 -2
BITMAP
0000
0000
0000
1830
0C60
06C0
0380
3FF8
0380
06C0
0C60
1830
0000
0000
0000
0000
ENDCHAR
STARTCHAR plus
STARTSWITH 65291
SWIDTH 1000 0
DWIDTH 16 0
BBX 16 16 0 -2
BITMAP
0000
0000
0000
0180
0180
0180
0180
1FF8
0180
0180
0180
0180
0000
0000
0000
0000
ENDCHAR
STARTCHAR comma
STARTSWITH 65292
SWIDTH 1000 0
DWIDTH 16 0
BBX 16 16 0 -2
BITMAP
0000
0000
0000
0000
0000
0000
0000
0180
0180
0180
0180
0300
0000
0000
0000
0000
ENDCHAR
STARTCHAR hyphen
STARTSWITH 65293
SWIDTH 1000 0
DWIDTH 16 0
BBX 16 16 0 -2
BITMAP
0000
0000
0000
0000
0000
0000
0000
1FF8
0000
0000
0000
0000
0000
0000
0000
0000
ENDCHAR
STARTCHAR period
STARTSWITH 65294
SWIDTH 1000 0
DWIDTH 16 0
BBX 16 16 0 -2
BITMAP
0000
0000
0000
0000
0000
0000
0000
0180
0180
0180
0000
0000
0000
0000
0000
0000
ENDCHAR
STARTCHAR slash
STARTSWITH 65295
SWIDTH 1000 0
DWIDTH 16 0
BBX 16 16 0 -2
BITMAP
0000
0030
0030
0060
0060
00C0
00C0
0180
0180
0300
0300
0600
0600
0C00
0C00
0000
ENDCHAR
STARTCHAR zero
STARTSWITH 65296
SWIDTH 1000 0
DWIDTH 16 0
BBX 16 16 0 -2
BITMAP
0000
07E0
0C30
1818
1818
1838
1878
18D8
1998
1B18
1E18
1C18
1818
1818
0C30
07E0
ENDCHAR
STARTCHAR one
STARTSWITH 65297
SWIDTH 1000 0
DWIDTH 16 0
BBX 16 16 0 -2
BITMAP
0000
0180
0380
0780
0D80
0180
0180
0180
0180
0180
0180
0180
0180
0180
0180
0FF0
ENDCHAR
STARTCHAR two
STARTSWITH 65298
SWIDTH 1000 0
DWIDTH 16 0
BBX 16 16 0 -2
BITMAP
0000
07E0
0C30
1818
1818
1818
0018
0030
0060
00C0
0180
0300
0600
0C00
1800
1FF8
ENDCHAR
STARTCHAR three
STARTSWITH 65299
SWIDTH 1000 0
DWIDTH 16 0
BBX 16 16 0 -2
BITMAP
0000
07E0
0C30
1818
0018
0018
0018
0030
03E0
0030
0018
0018
0018
1818
0C30
07E0
ENDCHAR
STARTCHAR four
STARTSWITH 65300
SWIDTH 1000 0
DWIDTH 16 0
BBX 16 16 0 -2
BITMAP
0000
0018
0038
0078
00D8
0198
0318
0618
0C18
1818
1818
1818
1FF8
0018
0018
0018
ENDCHAR
STARTCHAR five
STARTSWITH 65301
SWIDTH 1000 0
DWIDTH 16 0
BBX 16 16 0 -2
BITMAP
0000
1FF8
1800
1800
1800
1800
1800
1FE0
0030
0018
0018
0018
0018
1818
0C30
07E0
ENDCHAR
STARTCHAR six
STARTSWITH 65302
SWIDTH 1000 0
DWIDTH 16 0
BBX 16 16 0 -2
BITMAP
0000
07F0
0C00
1800
1800
1800
1800
1FE0
1830
1818
1818
1818
1818
1818
0C30
07E0
ENDCHAR
STARTCHAR seven
STARTSWITH 65303
SWIDTH 1000 0
DWIDTH 16 0
BBX 16 16 0 -2
BITMAP
0000
1FF8
1818
1818
0018
0030
0030
0060
0060
00C0
00C0
0180
0180
0180
0180
0180
ENDCHAR
STARTCHAR eight
STARTSWITH 65304
SWIDTH 1000 0
DWIDTH 16 0
BBX 16 16 0 -2
BITMAP
0000
07E0
0C30
1818
1818
1818
1818
0C30
07E0
0C30
1818
1818
1818
1818
0C30
07E0
ENDCHAR
STARTCHAR nine
STARTSWITH 65305
SWIDTH 1000 0
DWIDTH 16 0
BBX 16 16 0 -2
BITMAP
0000
07E0
0C30
1818
1818
1818
1818
1818
0C18
07F8
0018
0018
0018
0018
0030
0FE0
ENDCHAR
STARTCHAR colon
STARTSWITH 65306
SWIDTH 1000 0
DWIDTH 16 0
BBX 16 16 0 -2
BITMAP
0000
0000
0000
0180
0180
0180
0000
0000
0000
0000
0180
0180
0180
0000
0000
0000
ENDCHAR
STARTCHAR semicolon
STARTSWITH 65307
SWIDTH 1000 0
DWIDTH 16 0
BBX 16 16 0 -2
BITMAP
0000
0000
0000
0000
0180
0180
0180
0000
0000
0000
0180
0180
0180
0180
0300
0000
ENDCHAR
STARTCHAR less
STARTSWITH 65308
SWIDTH 1000 0
DWIDTH 16 0
BBX 16 16 0 -2
BITMAP
0000
0030
0060
00C0
0180
0300
0600
0C00
1800
0C00
0600
0300
0180
00C0
0060
0030
ENDCHAR
STARTCHAR equal
STARTSWITH 65309
SWIDTH 1000 0
DWIDTH 16 0
BBX 16 16 0 -2
BITMAP
0000
0000
0000
0000
0000
1FF8
0000
0000
0000
0000
1FF8
0000
0000
0000
0000
0000
ENDCHAR
STARTCHAR greater
STARTSWITH 65310
SWIDTH 1000 0
DWIDTH 16 0
BBX 16 16 0 -2
BITMAP
0000
1800
0C00
0600
0300
0180
00C0
0060
0030
0060
00C0
0180
0300
0600
0C00
1800
ENDCHAR
STARTCHAR question
STARTSWITH 65311
SWIDTH 1000 0
DWIDTH 16 0
BBX 16 16 0 -2
BITMAP
0000
07E0
0C30
1818
1818
1818
0030
0060
00C0
0180
0180
0000
0000
0180
0180
0180
ENDCHAR
STARTCHAR at
STARTSWITH 65312
SWIDTH 1000 0
DWIDTH 16 0
BBX 16 16 0 -2
BITMAP
0000
0FE0
1830
3018
30F8
3198
3318
3318
3318
3318
3318
3198
30F8
3000
1800
0FF8
ENDCHAR
STARTCHAR A
STARTSWITH 65313
SWIDTH 1000 0
DWIDTH 16 0
BBX 16 16 0 -2
BITMAP
0000
07E0
0C30
1818
1818
1818
1818
1818
1818
1FF8
1818
1818
1818
1818
1818
1818
ENDCHAR
STARTCHAR B
STARTSWITH 65314
SWIDTH 1000 0
DWIDTH 16 0
BBX 16 16 0 -2
BITMAP
0000
1FE0
1830
1818
1818
1818
1830
1FE0
1830
1818
1818
1818
1818
1818
1830
1FE0
ENDCHAR
STARTCHAR C
STARTSWITH 65315
SWIDTH 1000 0
DWIDTH 16 0
BBX 16 16 0 -2
BITMAP
0000
07E0
0C30
1818
1818
1800
1800
1800
1800
1800
1800
1800
1818
1818
0C30
07E0
ENDCHAR
STARTCHAR D
STARTSWITH 65316
SWIDTH 1000 0
DWIDTH 16 0
BBX 16 16 0 -2
BITMAP
0000
1FE0
1830
1818
1818
1818
1818
1818
1818
1818
1818
1818
1818
1818
1830
1FE0
ENDCHAR
STARTCHAR E
STARTSWITH 65317
SWIDTH 1000 0
DWIDTH 16 0
BBX 16 16 0 -2
BITMAP
0000
1FF8
1800
1800
1800
1800
1800
1800
1FE0
1800
1800
1800
1800
1800
1800
1FF8
ENDCHAR
STARTCHAR F
STARTSWITH 65318
SWIDTH 1000 0
DWIDTH 16 0
BBX 16 16 0 -2
BITMAP
0000
1FF8
1800
1800
1800
1800
1800
1800
1FE0
1800
1800
1800
1800
1800
1800
1800
ENDCHAR
STARTCHAR G
STARTSWITH 65319
SWIDTH 1000 0
DWIDTH 16 0
BBX 16 16 0 -2
BITMAP
0000
07E0
0C30
1818
1818
1800
1800
1800
18F8
1818
1818
1818
1818
1818
0C30
07E0
ENDCHAR
STARTCHAR H
STARTSWITH 65320
SWIDTH 1000 0
DWIDTH 16 0
BBX 16 16 0 -2
BITMAP
0000
1818
1818
1818
1818
1818
1818
1818
1FF8
1818
1818
1818
1818
1818
1818
1818
ENDCHAR
STARTCHAR I
STARTSWITH 65321
SWIDTH 1000 0
DWIDTH 16 0
BBX 16 16 0 -2
BITMAP
0000
07E0
0180
0180
0180
0180
0180
0180
0180
0180
0180
0180
0180
0180
0180
07E0
ENDCHAR
STARTCHAR J
STARTSWITH 65322
SWIDTH 1000 0
DWIDTH 16 0
BBX 16 16 0 -2
BITMAP
0000
00FC
0030
0030
0030
0030
0030
0030
0030
0030
0030
1830
1830
1830
0C60
07C0
ENDCHAR
STARTCHAR K
STARTSWITH 65323
SWIDTH 1000 0
DWIDTH 16 0
BBX 16 16 0 -2
BITMAP
0000
1818
1830
1860
18C0
1980
1B00
1E00
1C00
1E00
1B00
1980
18C0
1860
1830
1818
ENDCHAR
STARTCHAR L
STARTSWITH 65324
SWIDTH 1000 0
DWIDTH 16 0
BBX 16 16 0 -2
BITMAP
0000
1800
1800
1800
1800
1800
1800
1800
1800
1800
1800
1800
1800
1800
1800
1FF8
ENDCHAR
STARTCHAR M
STARTSWITH 65325
SWIDTH 1000 0
DWIDTH 16 0
BBX 16 16 0 -2
BITMAP
0000
2008
3018
3838
3C78
36D8
3398
3118
3018
3018
3018
3018
3018
3018
3018
3018
ENDCHAR
STARTCHAR N
STARTSWITH 65326
SWIDTH 1000 0
DWIDTH 16 0
BBX 16 16 0 -2
BITMAP
0000
1818
1818
1818
1818
1C18
1E18
1B18
1998
18D8
1878
1838
1818
1818
1818
1818
ENDCHAR
STARTCHAR O
STARTSWITH 65327
SWIDTH 1000 0
DWIDTH 16 0
BBX 16 16 0 -2
BITMAP
0000
07E0
0C30
1818
1818
1818
1818
1818
1818
1818
1818
1818
1818
1818
0C30
07E0
ENDCHAR
STARTCHAR P
STARTSWITH 65328
SWIDTH 1000 0
DWIDTH 16 0
BBX 16 16 0 -2
BITMAP
0000
1FE0
1830
1818
1818
1818
1818
1830
1FE0
1800
1800
1800
1800
1800
1800
1800
ENDCHAR
STARTCHAR Q
STARTSWITH 65329
SWIDTH 1000 0
DWIDTH 16 0
BBX 16 16 0 -2
BITMAP
0000
07E0
0C30
1818
1818
1818
1818
1818
1818
1818
1818
1998
0CF0
07E0
0030
0018
ENDCHAR
STARTCHAR R
STARTSWITH 65330
SWIDTH 1000 0
DWIDTH 16 0
BBX 16 16 0 -2
BITMAP
0000
1FE0
1830
1818
1818
1818
1818
1830
1FE0
1E00
1B00
1980
18C0
1860
1830
1818
ENDCHAR
STARTCHAR S
STARTSWITH 65331
SWIDTH 1000 0
DWIDTH 16 0
BBX 16 16 0 -2
BITMAP
0000
07E0
0C30
1818
1800
1800
1800
0C00
07E0
0030
0018
0018
0018
1818
0C30
07E0
ENDCHAR
STARTCHAR T
STARTSWITH 65332
SWIDTH 1000 0
DWIDTH 16 0
BBX 16 16 0 -2
BITMAP
0000
1FF8
0180
0180
0180
0180
0180
0180
0180
0180
0180
0180
0180
0180
0180
0180
ENDCHAR
STARTCHAR U
STARTSWITH 65333
SWIDTH 1000 0
DWIDTH 16 0
BBX 16 16 0 -2
BITMAP
0000
1818
1818
1818
1818
1818
1818
1818
1818
1818
1818
1818
1818
1818
0C30
07E0
ENDCHAR
STARTCHAR V
STARTSWITH 65334
SWIDTH 1000 0
DWIDTH 16 0
BBX 16 16 0 -2
BITMAP
0000
1818
1818
1818
1818
0C30
0C30
0C30
0C30
0660
0660
0660
03C0
03C0
0180
0180
ENDCHAR
STARTCHAR W
STARTSWITH 65335
SWIDTH 1000 0
DWIDTH 16 0
BBX 16 16 0 -2
BITMAP
0000
3018
3018
3018
3018
3018
3018
3018
3018
3118
3398
36D8
3C78
3838
3018
2008
ENDCHAR
STARTCHAR X
STARTSWITH 65336
SWIDTH 1000 0
DWIDTH 16 0
BBX 16 16 0 -2
BITMAP
0000
1818
1818
0C30
0C30
0660
0660
03C0
0180
03C0
0660
0660
0C30
0C30
1818
1818
ENDCHAR
STARTCHAR Y
STARTSWITH 65337
SWIDTH 1000 0
DWIDTH 16 0
BBX 16 16 0 -2
BITMAP
0000
1818
1818
0C30
0C30
0660
0660
03C0
03C0
0180
0180
0180
0180
0180
0180
0180
ENDCHAR
STARTCHAR Z
STARTSWITH 65338
SWIDTH 1000 0
DWIDTH 16 0
BBX 16 16 0 -2
BITMAP
0000
1FF8
0018
0018
0018
0030
0060
00C0
0180
0300
0600
0C00
1800
1800
1800
1FF8
ENDCHAR
STARTCHAR bracketleft
STARTSWITH 65339
SWIDTH 1000 0
DWIDTH 16 0
BBX 16 16 0 -2
BITMAP
0000
07C0
0600
0600
0600
0600
0600
0600
0600
0600
0600
0600
0600
0600
0600
07C0
ENDCHAR
STARTCHAR backslash
STARTSWITH 65340
SWIDTH 1000 0
DWIDTH 16 0
BBX 16 16 0 -2
BITMAP
0000
0C00
0C00
0600
0600
0300
0300
0180
0180
00C0
00C0
0060
0060
0030
0030
0000
ENDCHAR
STARTCHAR bracketright
STARTSWITH 65341
SWIDTH 1000 0
DWIDTH 16 0
BBX 16 16 0 -2
BITMAP
0000
07C0
00C0
00C0
00C0
00C0
00C0
00C0
00C0
00C0
00C0
00C0
00C0
00C0
00C0
07C0
ENDCHAR
STARTCHAR asciicircum
STARTSWITH 65342
SWIDTH 1000 0
DWIDTH 16 0
BBX 16 16 0 -2
BITMAP
0000
0000
0180
03C0
0660
0C30
1818
0000
0000
0000
0000
0000
0000
0000
0000
0000
ENDCHAR
STARTCHAR underscore
STARTSWITH 65343
SWIDTH 1000 0
DWIDTH 16 0
BBX 16 16 0 -2
BITMAP
0000
0000
0000
0000
0000
0000
0000
0000
0000
0000
0000
0000
0000
1FF8
0000
0000
ENDCHAR
STARTCHAR grave
STARTSWITH 65344
SWIDTH 1000 0
DWIDTH 16 0
BBX 16 16 0 -2
BITMAP
0000
0000
0000
0000
0600
0300
0180
0000
0000
0000
0000
0000
0000
0000
0000
0000
ENDCHAR
STARTCHAR a
STARTSWITH 65345
SWIDTH 1000 0
DWIDTH 16 0
BBX 16 16 0 -2
BITMAP
0000
0000
0000
0000
0FE0
0030
0018
0018
07F8
0C18
1818
1818
1818
0C18
07F8
0000
ENDCHAR
STARTCHAR b
STARTSWITH 65346
SWIDTH 1000 0
DWIDTH 16 0
BBX 16 16 0 -2
BITMAP
0000
1800
1800
1800
1800
1FE0
1830
1818
1818
1818
1818
1818
1818
1830
1FE0
0000
ENDCHAR
STARTCHAR c
STARTSWITH 65347
SWIDTH 1000 0
DWIDTH 16 0
BBX 16 16 0 -2
BITMAP
0000
0000
0000
0000
07E0
0C30
1818
1800
1800
1800
1800
1800
1818
0C30
07E0
0000
ENDCHAR
STARTCHAR d
STARTSWITH 65348
SWIDTH 1000 0
DWIDTH 16 0
BBX 16 16 0 -2
BITMAP
0000
0018
0018
0018
0018
07F8
0C18
1818
1818
1818
1818
1818
1818
0C18
07F8
0000
ENDCHAR
STARTCHAR e
STARTSWITH 65349
SWIDTH 1000 0
DWIDTH 16 0
BBX 16 16 0 -2
BITMAP
0000
0000
0000
0000
07E0
0C30
1818
1818
1818
1FF8
1800
1800
1800
0C18
07F0
0000
ENDCHAR
STARTCHAR f
STARTSWITH 65350
SWIDTH 1000 0
DWIDTH 16 0
BBX 16 16 0 -2
BITMAP
0000
00F8
0180
0180
0180
0FF0
0180
0180
0180
0180
0180
0180
0180
0180
0180
0000
ENDCHAR
STARTCHAR g
STARTSWITH 65351
SWIDTH 1000 0
DWIDTH 16 0
BBX 16 16 0 -2
BITMAP
0000
07F8
0C18
1818
1818
1818
1818
1818
1818
0C38
07F8
0018
0018
0030
0FE0
0000
ENDCHAR
STARTCHAR h
STARTSWITH 65352
SWIDTH 1000 0
DWIDTH 16 0
BBX 16 16 0 -2
BITMAP
0000
1800
1800
1800
1800
1FE0
1830
1818
1818
1818
1818
1818
1818
1818
1818
0000
ENDCHAR
STARTCHAR i
STARTSWITH 65353
SWIDTH 1000 0
DWIDTH 16 0
BBX 16 16 0 -2
BITMAP
0000
0180
0180
0000
0780
0180
0180
0180
0180
0180
0180
0180
0180
0180
07E0
0000
ENDCHAR
STARTCHAR j
STARTSWITH 65354
SWIDTH 1000 0
DWIDTH 16 0
BBX 16 16 0 -2
BITMAP
0000
0030
0030
0000
00F0
0030
0030
0030
0030
0030
0030
0C30
0C30
0660
03C0
0000
ENDCHAR
STARTCHAR k
STARTSWITH 65355
SWIDTH 1000 0
DWIDTH 16 0
BBX 16 16 0 -2
BITMAP
0000
0C00
0C00
0C00
0C00
0C30
0C60
0CC0
0D80
0F00
0D80
0CC0
0C60
0C30
0C18
0000
ENDCHAR
STARTCHAR l
STARTSWITH 65356
SWIDTH 1000 0
DWIDTH 16 0
BBX 16 16 0 -2
BITMAP
0000
0780
0180
0180
0180
0180
0180
0180
0180
0180
0180
0180
0180
0180
07E0
0000
ENDCHAR
STARTCHAR m
STARTSWITH 65357
SWIDTH 1000 0
DWIDTH 16 0
BBX 16 16 0 -2
BITMAP
0000
0000
0000
0000
1FE0
19B0
1998
1998
1998
1998
1998
1998
1998
1998
1998
0000
ENDCHAR
STARTCHAR n
STARTSWITH 65358
SWIDTH 1000 0
DWIDTH 16 0
BBX 16 16 0 -2
BITMAP
0000
0000
0000
0000
1FE0
1830
1818
1818
1818
1818
1818
1818
1818
1818
1818
0000
ENDCHAR
STARTCHAR o
STARTSWITH 65359
SWIDTH 1000 0
DWIDTH 16 0
BBX 16 16 0 -2
BITMAP
0000
0000
0000
0000
07E0
0C30
1818
1818
1818
1818
1818
1818
1818
0C30
07E0
0000
ENDCHAR
STARTCHAR p
STARTSWITH 65360
SWIDTH 1000 0
DWIDTH 16 0
BBX 16 16 0 -2
BITMAP
0000
1FE0
1830
1818
1818
1818
1818
1818
1818
1830
1FE0
1800
1800
1800
1800
0000
ENDCHAR
STARTCHAR q
STARTSWITH 65361
SWIDTH 1000 0
DWIDTH 16 0
BBX 16 16 0 -2
BITMAP
0000
07F8
0C18
1818
1818
1818
1818
1818
1818
0C18
07F8
0018
0018
0018
0018
0000
ENDCHAR
STARTCHAR r
STARTSWITH 65362
SWIDTH 1000 0
DWIDTH 16 0
BBX 16 16 0 -2
BITMAP
0000
0000
0000
0000
19F8
1B00
1E00
1C00
1800
1800
1800
1800
1800
1800
1800
0000
ENDCHAR
STARTCHAR s
STARTSWITH 65363
SWIDTH 1000 0
DWIDTH 16 0
BBX 16 16 0 -2
BITMAP
0000
0000
0000
0000
0FF0
1818
1800
1800
1800
0FF0
0018
0018
0018
1818
0FF0
0000
ENDCHAR
STARTCHAR t
STARTSWITH 65364
SWIDTH 1000 0
DWIDTH 16 0
BBX 16 16 0 -2
BITMAP
0000
0300
0300
0300
0300
1FE0
0300
0300
0300
0300
0300
0300
0300
0300
01F0
0000
ENDCHAR
STARTCHAR u
STARTSWITH 65365
SWIDTH 1000 0
DWIDTH 16 0
BBX 16 16 0 -2
BITMAP
0000
0000
0000
0000
1818
1818
1818
1818
1818
1818
1818
1818
1818
0C18
07F8
0000
ENDCHAR
STARTCHAR v
STARTSWITH 65366
SWIDTH 1000 0
DWIDTH 16 0
BBX 16 16 0 -2
BITMAP
0000
0000
0000
0000
1818
1818
1818
0C30
0C30
0660
0660
03C0
03C0
0180
0180
0000
ENDCHAR
STARTCHAR w
STARTSWITH 65367
SWIDTH 1000 0
DWIDTH 16 0
BBX 16 16 0 -2
BITMAP
0000
0000
0000
0000
1818
1818
1818
1818
1998
1998
1998
1998
1998
1998
0FF0
0000
ENDCHAR
STARTCHAR x
STARTSWITH 65368
SWIDTH 1000 0
DWIDTH 16 0
BBX 16 16 0 -2
BITMAP
0000
0000
0000
0000
1818
1818
0C30
0660
03C0
0180
03C0
0660
0C30
1818
1818
0000
ENDCHAR
STARTCHAR y
STARTSWITH 65369
SWIDTH 1000 0
DWIDTH 16 0
BBX 16 16 0 -2
BITMAP
0000
1818
1818
1818
1818
1818
1818
1818
1818
0C38
07F8
0018
0018
0030
0FE0
0000
ENDCHAR
STARTCHAR z
STARTSWITH 65370
SWIDTH 1000 0
DWIDTH 16 0
BBX 16 16 0 -2
BITMAP
0000
0000
0000
0000
1FF8
0018
0030
0060
00C0
0180
0300
0600
0C00
1800
1FF8
0000
ENDCHAR
STARTCHAR braceleft
STARTSWITH 65371
SWIDTH 1000 0
DWIDTH 16 0
BBX 16 16 0 -2
BITMAP
0000
00E0
0180
0300
0300
0300
0300
0300
0E00
0300
0300
0300
0300
0300
0180
00E0
ENDCHAR
STARTCHAR bar
STARTSWITH 65372
SWIDTH 1000 0
DWIDTH 16 0
BBX 16 16 0 -2
BITMAP
0000
0180
0180
0180
0180
0180
0180
0180
0180
0180
0180
0180
0180
0180
0180
0180
ENDCHAR
STARTCHAR braceright
STARTSWITH 65373
SWIDTH 1000 0
DWIDTH 16 0
BBX 16 16 0 -2
BITMAP
0000
0E00
0300
0180
0180
0180
0180
0180
00E0
0180
0180
0180
0180
0180
0300
0E00
ENDCHAR
STARTCHAR asciitilde
STARTSWITH 65374
SWIDTH 1000 0
DWIDTH 16 0
BBX 16 16 0 -2
BITMAP
0000
0000
0000
0000
0000
0000
0F18
1998
1998
18F0
0000
0000
0000
0000
0000
0000
ENDCHAR
ENDFONT
